<svg width="56" height="56" viewBox="0 0 56 56" fill="none" xmlns="http://www.w3.org/2000/svg">
<circle cx="27" cy="29.3937" r="13" fill="#F2C94C"/>
<mask id="path-2-inside-1" fill="white">
<path d="M21.9375 36.5812C21.9375 37.1335 24.3999 37.5812 27.4375 37.5812C30.4751 37.5812 32.9375 37.1335 32.9375 36.5812L21.9375 36.5812Z"/>
</mask>
<path d="M21.9375 36.5812L21.9375 29.5812L14.9375 29.5812L14.9375 36.5812L21.9375 36.5812ZM32.9375 36.5812L39.9375 36.5812L39.9375 29.5812L32.9375 29.5812L32.9375 36.5812ZM27.4375 30.5812C26.2062 30.5812 25.2701 30.4866 24.8006 30.4012C24.5085 30.3481 24.7024 30.3538 25.1342 30.5394C25.323 30.6206 25.9791 30.9105 26.6987 31.5499C27.3896 32.1638 28.9375 33.8456 28.9375 36.5812L14.9375 36.5812C14.9375 39.4548 16.5623 41.2715 17.3998 42.0155C18.2659 42.7851 19.1381 43.2006 19.6052 43.4014C20.5936 43.8263 21.593 44.0475 22.2962 44.1754C23.8173 44.4519 25.6313 44.5812 27.4375 44.5812L27.4375 30.5812ZM25.9375 36.5812C25.9375 33.8456 27.4854 32.1638 28.1763 31.5499C28.8959 30.9105 29.552 30.6206 29.7408 30.5394C30.1726 30.3538 30.3665 30.3481 30.0744 30.4012C29.6049 30.4866 28.6688 30.5812 27.4375 30.5812L27.4375 44.5812C29.2437 44.5812 31.0577 44.4519 32.5788 44.1754C33.282 44.0475 34.2814 43.8263 35.2697 43.4014C35.7369 43.2006 36.6091 42.7851 37.4752 42.0155C38.3127 41.2715 39.9375 39.4548 39.9375 36.5812L25.9375 36.5812ZM32.9375 29.5812L21.9375 29.5812L21.9375 43.5812L32.9375 43.5812L32.9375 29.5812Z" fill="#452221" mask="url(#path-2-inside-1)"/>
<mask id="path-4-inside-2" fill="white">
<path fill-rule="evenodd" clip-rule="evenodd" d="M19 31.3937C18.4477 31.3937 17.9873 31.8482 18.1215 32.3839C18.5636 34.149 20.1604 35.4562 22.0625 35.4562C23.9646 35.4562 25.5614 34.149 26.0035 32.3839C26.1376 31.8482 25.6773 31.3937 25.125 31.3937L19 31.3937Z"/>
</mask>
<path fill-rule="evenodd" clip-rule="evenodd" d="M19 31.3937C18.4477 31.3937 17.9873 31.8482 18.1215 32.3839C18.5636 34.149 20.1604 35.4562 22.0625 35.4562C23.9646 35.4562 25.5614 34.149 26.0035 32.3839C26.1376 31.8482 25.6773 31.3937 25.125 31.3937L19 31.3937Z" fill="white"/>
<path d="M18.1215 32.3839L20.0616 31.898L18.1215 32.3839ZM22.0625 33.4562C21.0995 33.4562 20.2861 32.7944 20.0616 31.898L16.1815 32.8698C16.8411 35.5036 19.2213 37.4562 22.0625 37.4562L22.0625 33.4562ZM24.0634 31.898C23.8389 32.7944 23.0255 33.4562 22.0625 33.4562L22.0625 37.4562C24.9037 37.4562 27.2839 35.5036 27.9435 32.8698L24.0634 31.898ZM25.125 29.3937L19 29.3937L19 33.3937L25.125 33.3937L25.125 29.3937ZM27.9435 32.8698C28.48 30.7278 26.6001 29.3937 25.125 29.3937L25.125 33.3937C24.8623 33.3937 24.5779 33.2881 24.3547 33.0473C24.1072 32.7803 23.951 32.3468 24.0634 31.898L27.9435 32.8698ZM20.0616 31.898C20.174 32.3468 20.0177 32.7803 19.7703 33.0473C19.5471 33.2881 19.2627 33.3937 19 33.3937L19 29.3937C17.5249 29.3937 15.6449 30.7278 16.1815 32.8698L20.0616 31.898Z" fill="#452221" mask="url(#path-4-inside-2)"/>
<mask id="path-6-inside-3" fill="white">
<path fill-rule="evenodd" clip-rule="evenodd" d="M28.75 31.3937C28.1977 31.3937 27.7373 31.8482 27.8715 32.3839C28.3136 34.149 29.9104 35.4562 31.8125 35.4562C33.7146 35.4562 35.3114 34.149 35.7535 32.3839C35.8876 31.8482 35.4273 31.3937 34.875 31.3937L28.75 31.3937Z"/>
</mask>
<path fill-rule="evenodd" clip-rule="evenodd" d="M28.75 31.3937C28.1977 31.3937 27.7373 31.8482 27.8715 32.3839C28.3136 34.149 29.9104 35.4562 31.8125 35.4562C33.7146 35.4562 35.3114 34.149 35.7535 32.3839C35.8876 31.8482 35.4273 31.3937 34.875 31.3937L28.75 31.3937Z" fill="white"/>
<path d="M27.8715 32.3839L25.9315 32.8698L27.8715 32.3839ZM31.8125 33.4562C30.8495 33.4562 30.0361 32.7944 29.8116 31.898L25.9315 32.8698C26.5911 35.5036 28.9713 37.4562 31.8125 37.4562L31.8125 33.4562ZM33.8134 31.898C33.5889 32.7944 32.7755 33.4562 31.8125 33.4562L31.8125 37.4562C34.6537 37.4562 37.0339 35.5036 37.6935 32.8698L33.8134 31.898ZM34.875 29.3937L28.75 29.3937L28.75 33.3937L34.875 33.3937L34.875 29.3937ZM37.6935 32.8698C38.23 30.7278 36.3501 29.3937 34.875 29.3937L34.875 33.3937C34.6123 33.3937 34.3279 33.2881 34.1047 33.0473C33.8572 32.7803 33.701 32.3468 33.8134 31.898L37.6935 32.8698ZM29.8116 31.898C29.924 32.3468 29.7677 32.7803 29.5203 33.0473C29.2971 33.2881 29.0127 33.3937 28.75 33.3937L28.75 29.3937C27.2749 29.3937 25.3949 30.7278 25.9315 32.8698L29.8116 31.898Z" fill="#452221" mask="url(#path-6-inside-3)"/>
<path d="M27.7888 21.8089C29.2138 21.5373 30.6366 21.2325 32.0842 21.1143C32.147 21.1092 32.307 21.0612 32.2731 21.1143C32.201 21.2273 32.1026 21.3331 32.0193 21.4372C31.5652 22.0048 31.0809 22.5569 30.6626 23.1513C30.3192 23.6393 30.0387 24.1874 29.769 24.7192C29.4977 25.2541 29.1646 25.7433 28.8571 26.2566C28.8464 26.2744 28.6741 26.491 28.786 26.5166C28.9422 26.5523 29.1434 26.5247 29.2998 26.5247C31.0649 26.5247 32.8272 26.3789 34.5884 26.2688" stroke="black" stroke-linecap="round" stroke-linejoin="round"/>
<path d="M35.1733 18.007C36.0071 17.8136 36.9571 17.9339 37.8094 17.9339C37.9155 17.9339 38.0545 17.8941 37.9475 18.0192C37.7398 18.2621 37.5117 18.4738 37.2753 18.6873C36.8872 19.0379 36.5598 19.4334 36.1522 19.7658C35.9509 19.9299 35.7498 20.0948 35.5348 20.241C35.4844 20.2753 35.3824 20.306 35.48 20.3588C35.742 20.5007 36.0723 20.5804 36.3512 20.6716C36.8262 20.8268 37.3032 20.9602 37.7871 21.0838C38.0757 21.1575 38.423 21.3629 38.7193 21.2971" stroke="black" stroke-linecap="round" stroke-linejoin="round"/>
<path d="M39.1945 14.3513C39.6019 14.1933 40.0214 14.1743 40.4375 14.0609C40.5723 14.0241 40.7396 13.9916 40.8802 14.002C41.0321 14.0132 40.8749 14.3616 40.8599 14.4061C40.671 14.9678 40.4289 15.5316 40.2709 16.102C40.2126 16.3125 41.6795 16.1834 41.7901 16.1791" stroke="black" stroke-linecap="round" stroke-linejoin="round"/>
</svg>
