<svg width="56" height="56" viewBox="0 0 56 56" fill="none" xmlns="http://www.w3.org/2000/svg">
<circle cx="28" cy="28" r="13" fill="#F2C94C"/>
<mask id="path-2-inside-1" fill="white">
<path d="M22 32C22 33.1046 24.4624 34 27.5 34C30.5376 34 33 33.1046 33 32L22 32Z"/>
</mask>
<path d="M22 32L22 25L15 25L15 32L22 32ZM33 32L40 32L40 25L33 25L33 32ZM27.5 27C27.0776 27 26.7106 26.9684 26.4233 26.9242C26.1227 26.878 25.9883 26.8303 26.0031 26.8357C26.0151 26.84 26.1074 26.8738 26.257 26.9544C26.399 27.0308 26.6706 27.191 26.9957 27.4705C27.5672 27.9619 29 29.4684 29 32L15 32C15 35.0839 16.7406 37.1166 17.8688 38.0865C19.0196 39.0759 20.2755 39.6498 21.2187 39.9928C23.1627 40.6997 25.3845 41 27.5 41L27.5 27ZM26 32C26 29.4684 27.4328 27.9619 28.0043 27.4705C28.3294 27.191 28.601 27.0308 28.743 26.9544C28.8926 26.8738 28.9849 26.84 28.9969 26.8357C29.0117 26.8303 28.8773 26.878 28.5767 26.9242C28.2894 26.9684 27.9224 27 27.5 27L27.5 41C29.6155 41 31.8373 40.6997 33.7813 39.9928C34.7245 39.6498 35.9804 39.0759 37.1312 38.0865C38.2594 37.1166 40 35.0839 40 32L26 32ZM33 25L22 25L22 39L33 39L33 25Z" fill="#452221" mask="url(#path-2-inside-1)"/>
<g filter="url(#filter0_d)">
<path fill-rule="evenodd" clip-rule="evenodd" d="M38.1521 18.9728C38.8829 19.1433 39.4888 19.323 39.9723 19.5C39.4888 19.677 38.8829 19.8567 38.1521 20.0272C35.6261 20.6166 32.0358 21 28 21C23.9642 21 20.3739 20.6166 17.8479 20.0272C17.1171 19.8567 16.5112 19.677 16.0277 19.5C16.5112 19.323 17.1171 19.1433 17.8479 18.9728C18.2207 18.8858 18.6168 18.8033 19.0341 18.7258C20.0628 17.7153 21.2588 16.8745 22.5768 16.249C24.2772 16.0903 26.131 16.0022 28.072 16C28.048 16 28.024 16 28 16C19.7157 16 13 17.567 13 19.5C13 21.433 19.7157 23 28 23C36.2843 23 43 21.433 43 19.5C43 18.042 39.1794 16.7923 33.7469 16.2661C35.0654 16.8968 36.2609 17.7431 37.2879 18.7594C34.8548 18.2926 31.6694 18 28.144 18C28.1199 18 28.096 18 28.072 18C32.0785 18.0046 35.6412 18.3869 38.1521 18.9728Z" fill="#2D9CDB"/>
</g>
<path d="M21 28C21.6154 27.2454 23.2769 26.1889 25 28" stroke="#452221" stroke-width="2" stroke-linecap="round" stroke-linejoin="round"/>
<path d="M30 28C30.6154 27.2454 32.2769 26.1889 34 28" stroke="#452221" stroke-width="2" stroke-linecap="round" stroke-linejoin="round"/>
<defs>
<filter id="filter0_d" x="8" y="12" width="40" height="17" filterUnits="userSpaceOnUse" color-interpolation-filters="sRGB">
<feFlood flood-opacity="0" result="BackgroundImageFix"/>
<feColorMatrix in="SourceAlpha" type="matrix" values="0 0 0 0 0 0 0 0 0 0 0 0 0 0 0 0 0 0 127 0"/>
<feOffset dy="1"/>
<feGaussianBlur stdDeviation="2.5"/>
<feColorMatrix type="matrix" values="0 0 0 0 1 0 0 0 0 1 0 0 0 0 1 0 0 0 0.25 0"/>
<feBlend mode="normal" in2="BackgroundImageFix" result="effect1_dropShadow"/>
<feBlend mode="normal" in="SourceGraphic" in2="effect1_dropShadow" result="shape"/>
</filter>
</defs>
</svg>
