<svg width="56" height="56" viewBox="0 0 56 56" fill="none" xmlns="http://www.w3.org/2000/svg">
<circle cx="28" cy="28" r="13" fill="#F2C94C"/>
<mask id="path-2-inside-1" fill="white">
<path d="M22 32C22 34.7614 24.4624 37 27.5 37C30.5376 37 33 34.7614 33 32L22 32Z"/>
</mask>
<path d="M22 32L22 25L15 25L15 32L22 32ZM33 32L40 32L40 25L33 25L33 32ZM27.5 30C27.7043 30 28.013 30.0772 28.3196 30.356C28.6372 30.6447 29 31.2189 29 32L15 32C15 39.2403 21.2392 44 27.5 44L27.5 30ZM26 32C26 31.2189 26.3628 30.6447 26.6804 30.356C26.987 30.0772 27.2957 30 27.5 30L27.5 44C33.7608 44 40 39.2403 40 32L26 32ZM33 25L22 25L22 39L33 39L33 25Z" fill="#452221" mask="url(#path-2-inside-1)"/>
<path d="M26.7899 25.2789C24.2461 24.007 19.4461 24.0675 17.3641 24.2568C17.0234 24.2761 17.137 25.1653 17.2506 25.3924C17.3641 25.6196 17.5912 25.2789 17.9319 26.4145C18.2726 27.5502 18.7269 30.5028 22.1338 30.9571C24.8593 31.3205 26.8278 28.3072 27.4713 26.7552H28.0391C29.5155 29.2536 30.0833 30.7299 33.6038 30.9571C37.1242 31.1842 37.6921 26.4859 37.8056 25.918C37.9192 25.3502 38.0653 25.6196 38.2357 25.2789C38.5991 24.5521 38.0987 24.2821 37.8056 24.2568C32.5363 23.8025 29.5533 24.7489 28.7205 25.2789H26.7899Z" fill="black"/>
<path fill-rule="evenodd" clip-rule="evenodd" d="M31.6214 24.534C30.1211 24.7787 29.188 25.1438 28.7941 25.3945L28.7604 25.4159H26.7576L26.7287 25.4014C25.4821 24.7782 23.6689 24.4765 21.8946 24.3566C20.1244 24.2369 18.4111 24.2992 17.3765 24.3933L17.3742 24.3935L17.3719 24.3936C17.3621 24.3941 17.3396 24.3963 17.3141 24.4609C17.2879 24.527 17.274 24.627 17.274 24.7467C17.274 24.8638 17.2872 24.9885 17.3072 25.0971C17.3278 25.2087 17.3534 25.2918 17.3731 25.3312C17.3797 25.3443 17.3842 25.3481 17.3857 25.3493C17.3882 25.3514 17.3935 25.355 17.4097 25.3618C17.4145 25.3638 17.4205 25.3661 17.4274 25.3687C17.4634 25.3825 17.5257 25.4063 17.5883 25.4532C17.7397 25.5668 17.8918 25.8038 18.0632 26.3752C18.0965 26.4864 18.1305 26.6125 18.1676 26.7501C18.3251 27.3347 18.5385 28.1271 18.9994 28.869C19.5624 29.7753 20.4937 30.6002 22.1519 30.8213C23.4557 30.9951 24.5892 30.3636 25.4871 29.477C26.3846 28.5906 27.0283 27.4659 27.3448 26.7027L27.3798 26.6182H28.1173L28.1571 26.6855C28.275 26.885 28.3867 27.0772 28.4941 27.2621C29.0663 28.2464 29.5186 29.0246 30.148 29.6074C30.8843 30.2891 31.8724 30.7081 33.6126 30.8204C35.2929 30.9288 36.2744 29.8693 36.8593 28.6754C37.3705 27.6317 37.5629 26.5148 37.6427 26.0509C37.6545 25.9829 37.6638 25.9289 37.6713 25.8912C37.7008 25.7435 37.7346 25.6387 37.7762 25.5615C37.8208 25.4789 37.8721 25.4322 37.9254 25.398C37.9419 25.3874 37.9608 25.3768 37.9749 25.3688C37.9793 25.3664 37.9832 25.3642 37.9865 25.3623C38.0028 25.3529 38.0152 25.3451 38.027 25.3356C38.0484 25.3185 38.0778 25.2882 38.1131 25.2176C38.2799 24.8841 38.2332 24.6925 38.1556 24.5848C38.0695 24.4652 37.914 24.4037 37.7939 24.3933C35.1694 24.1671 33.1177 24.2899 31.6214 24.534ZM31.5773 24.2636C33.098 24.0155 35.1725 23.8923 37.8174 24.1203C37.9903 24.1352 38.2315 24.2213 38.378 24.4247C38.5331 24.6401 38.5549 24.9469 38.3582 25.3402C38.3083 25.4399 38.2556 25.5037 38.1981 25.5496C38.1705 25.5717 38.1443 25.5876 38.1229 25.5999C38.1146 25.6047 38.1079 25.6085 38.102 25.6118C38.0908 25.6181 38.0827 25.6226 38.0734 25.6286C38.0546 25.6407 38.0374 25.6544 38.0174 25.6916C37.9944 25.7342 37.9672 25.8087 37.94 25.9449C37.9332 25.9788 37.9246 26.0289 37.9136 26.0932C37.8357 26.5485 37.6365 27.7116 37.1053 28.7959C36.4977 30.0363 35.4351 31.2125 33.595 31.0938C31.8146 30.9789 30.7586 30.5462 29.9618 29.8084C29.2997 29.1953 28.8232 28.3748 28.2522 27.3914C28.1581 27.2294 28.0614 27.0629 27.9609 26.8922H27.5621C27.2239 27.6777 26.5759 28.7867 25.6796 29.6719C24.751 30.589 23.5375 31.2825 22.1157 31.0929C20.3671 30.8597 19.3677 29.9812 18.7667 29.0136C18.2819 28.2332 18.0556 27.3907 17.8988 26.807C17.8633 26.6748 17.8313 26.5558 17.8007 26.4539C17.6314 25.8896 17.4996 25.7292 17.4239 25.6724C17.3944 25.6503 17.3729 25.6419 17.34 25.629C17.3295 25.6249 17.3178 25.6204 17.3043 25.6147C17.278 25.6038 17.2442 25.5879 17.2113 25.5607C17.1773 25.5326 17.1498 25.4974 17.128 25.4537C17.0909 25.3795 17.0598 25.2663 17.0378 25.1467C17.0152 25.0241 17 24.8827 17 24.7467C17 24.6132 17.0145 24.4731 17.0593 24.36C17.1045 24.246 17.1948 24.1304 17.3538 24.1202C18.4014 24.0251 20.1281 23.9626 21.9131 24.0832C23.6819 24.2028 25.5262 24.5032 26.8221 25.1419H28.6814C29.1356 24.8652 30.0991 24.5047 31.5773 24.2636Z" fill="black"/>
<path fill-rule="evenodd" clip-rule="evenodd" d="M29.9419 27.3923C30.1631 27.3414 30.3837 27.4795 30.4346 27.7007C30.4825 27.9088 30.6159 28.2432 30.8494 28.5247C31.0774 28.7995 31.382 29.0042 31.7881 29.028C32.0147 29.0413 32.1876 29.2358 32.1743 29.4624C32.161 29.689 31.9666 29.8619 31.74 29.8486C31.0501 29.8082 30.5498 29.4509 30.2168 29.0495C29.8893 28.6548 29.7057 28.1985 29.6335 27.885C29.5826 27.6638 29.7207 27.4432 29.9419 27.3923Z" fill="white"/>
<path fill-rule="evenodd" clip-rule="evenodd" d="M19.2556 27.3923C19.4768 27.3414 19.6974 27.4795 19.7483 27.7007C19.7962 27.9088 19.9296 28.2432 20.1631 28.5247C20.3911 28.7995 20.6957 29.0042 21.1017 29.028C21.3284 29.0413 21.5013 29.2358 21.488 29.4624C21.4747 29.689 21.2802 29.8619 21.0536 29.8486C20.3638 29.8082 19.8634 29.4509 19.5304 29.0495C19.2029 28.6548 19.0193 28.1985 18.9472 27.885C18.8963 27.6638 19.0344 27.4432 19.2556 27.3923Z" fill="white"/>
</svg>
